# xmcd
#
# Track frame offsets: 
#        150
#        20960
#        41430
#        56780
#        74987
#        91030
#        106792
#        126135
#        142340
#        167465
#        185835
#        200200
#
# Disc length: 2924 seconds
#
# Revision: 9
# Processed by: cddbd v1.5.2PL0 Copyright (c) Steve Scherf et al.
# Submitted via: ExactAudioCopyFreeDBPlugin 1.0
#
DISCID=bc0b6a0c
DTITLE=Various Artist - Imagine the Cure for PC Network Blues
DYEAR=1993
DGENRE=Blues
TTITLE0=Curly "Barefoot" Miller - The Curly Stomp
TTITLE1=Augie Jr. and The Big Mess Blues Band - Black Train
TTITLE2=Reddog - Heartache and Pain
TTITLE3=Back Porch Blues - Dirty Dealer
TTITLE4=The Nighthawks - Gotta Get My Baby Back
TTITLE5=Troy Turner - Handful of Aces
TTITLE6=Tom Limbaugh Band - Little Sin
TTITLE7=Mick Clarke Band - Murderer Is Home
TTITLE8=Augie Jr. and The Big Mess Blues Band - Down On The Floor
TTITLE9=Robert Ealey - Dog Don't Bite
TTITLE10=Lee Dorsey - Everything I Do Gonh Be Funky From Now On
TTITLE11=C. P. Love - True Blue
EXTD=
EXTT0=Curly "Barefoot" Miller:Hot Rhythm and Cool Blues
EXTT1=Augie Jr. and The Big Mess Blues Band:Drinker's Choice
EXTT2=Reddog:After the Rain
EXTT3=Back Porch Blues:Back to Basics\n\n\n
EXTT4=The Nighthawks:Jacks and Kings Vol. I and Vol. II
EXTT5=Troy Turner:Handful of Aces
EXTT6=Tom Limbaugh Band:Dear Uncle Rush
EXTT7=Mick Clarke Band:Tell the Truth
EXTT8=Augie Jr. and The Big Mess Blues Band:Drinker's Choice
EXTT9=Robert Ealey:Hot Rhythm and Cool Blues
EXTT10=Lee Dorsey:Great Googa Mooga
EXTT11=C. P. Love:C. P. Love
PLAYORDER=
